<?xml version="1.0" encoding="UTF-8"?>
<svg version="1.1" xmlns="http://www.w3.org/2000/svg" width="365" height="293">
<path d="M0 0 C6.61213395 6.07209911 11.18112531 13.77845386 15.9609375 21.30078125 C16.9509375 20.64078125 17.9409375 19.98078125 18.9609375 19.30078125 C23.41077992 25.97554488 26.71138539 32.97533045 29.9609375 40.30078125 C31.77651126 37.57742062 33.07438789 34.87698316 34.42041016 31.90625 C41.40899596 16.86142625 52.49795867 7.11048364 67.95703125 1.14453125 C82.73151514 -3.18557529 98.20906161 -1.36974597 111.7734375 5.61328125 C125.53370777 13.49966683 133.13730767 25.81226743 141.70629883 38.83505249 C143.25608918 41.1889201 144.81575683 43.53618206 146.37493896 45.88383484 C147.52637425 47.61756919 148.67682696 49.35195229 149.82714844 51.08642578 C152.68926002 55.39793163 155.55882431 59.70359054 158.4609375 63.98828125 C158.89905762 64.64666992 159.33717773 65.30505859 159.78857422 65.98339844 C160.7941089 67.45927043 161.86977869 68.88703779 162.9609375 70.30078125 C163.6209375 70.30078125 164.2809375 70.30078125 164.9609375 70.30078125 C166.46875 72.41796875 166.46875 72.41796875 168.0859375 75.17578125 C168.62476563 76.08070312 169.16359375 76.985625 169.71875 77.91796875 C170.9609375 80.30078125 170.9609375 80.30078125 170.9609375 82.30078125 C171.6209375 82.30078125 172.2809375 82.30078125 172.9609375 82.30078125 C173.35152344 81.42873047 173.35152344 81.42873047 173.75 80.5390625 C178.73583186 71.32331522 189.152883 65.06812565 198.8671875 61.9765625 C214.78751808 57.41151094 230.67089 58.45236854 245.3359375 66.42578125 C257.7319459 74.34778933 266.75709641 85.73235459 270.47265625 100.0703125 C273.65049958 114.58670084 272.00105721 129.17997961 264.87890625 142.3515625 C257.20252919 154.15536023 246.56721658 163.17030367 232.9609375 167.30078125 C231.9709375 167.30078125 230.9809375 167.30078125 229.9609375 167.30078125 C233.44964446 173.40024242 237.01605329 179.4271751 240.77783203 185.36132812 C251.448751 202.20218121 256.80038739 216.89318161 253.30859375 237.0703125 C249.01495203 252.30997645 240.2464632 263.58569037 226.84375 271.76171875 C213.2205445 279.0348122 196.84489567 280.95210199 181.8984375 276.73828125 C169.7104146 272.31053994 159.61536011 264.40771269 152.3984375 253.73828125 C151.6544873 252.66235718 151.6544873 252.66235718 150.89550781 251.56469727 C144.46813398 242.22274591 138.20890083 232.76329663 131.9609375 223.30078125 C131.65542969 224.16058594 131.34992188 225.02039063 131.03515625 225.90625 C124.87687156 241.81370652 114.53694591 252.92164655 99.265625 260.66796875 C85.47265856 266.59159384 71.23375829 266.70810284 56.9609375 262.30078125 C42.77673654 256.33953961 33.69216302 246.81654283 25.3984375 234.05078125 C24.58938227 232.82941424 23.7787836 231.6090685 22.96679688 230.38964844 C21.21544375 227.75700746 19.47074494 225.12012182 17.72998047 222.48046875 C13.38406306 215.90424409 8.94890136 209.38807663 4.52688599 202.86291504 C1.86553617 198.9334136 -0.78974373 194.99981583 -3.4453125 191.06640625 C-3.98429672 190.26821472 -4.52328094 189.47002319 -5.07859802 188.64764404 C-12.36903746 177.85093256 -19.65770807 167.05302575 -26.94458008 156.25390625 C-32.44375517 148.1046982 -37.94606282 139.95764457 -43.45703125 131.81640625 C-49.66073283 122.65105644 -55.85500034 113.47939408 -62.0390625 104.30078125 C-62.58743774 103.48712097 -63.13581299 102.67346069 -63.70080566 101.83514404 C-67.05872062 96.85124166 -70.41054652 91.86332543 -73.75479126 86.87023926 C-74.80573531 85.30251025 -75.85824568 83.73582993 -76.91244507 82.17028809 C-78.37195806 80.00194948 -79.82537404 77.82964453 -81.27734375 75.65625 C-81.70222076 75.02766586 -82.12709778 74.39908173 -82.56484985 73.75144958 C-91.5443381 60.2499307 -94.95279463 46.36200305 -92.5703125 30.1015625 C-89.30120964 15.21546913 -81.29333992 2.84207954 -68.5390625 -5.63671875 C-45.53419949 -19.14238271 -20.5030528 -17.08587733 0 0 Z " fill="#4D02C4" transform="translate(93.0390625,14.69921875)"/>
<path d="M0 0 C4.6706112 4.21861657 4.6706112 4.21861657 5 8 C3.85546875 10.8828125 3.85546875 10.8828125 2.1875 14.125 C-4.48373742 28.02470117 -4.64653642 42.31094938 0 57 C4.59823612 68.98328202 12.86417554 78.63262896 24 85 C34.06450442 89.38345696 42.9980718 91.16897595 53.875 91.0625 C54.75414062 91.05798828 55.63328125 91.05347656 56.5390625 91.04882812 C58.69273803 91.03712337 60.84637817 91.01919069 63 91 C66.22265625 96.2734375 66.22265625 96.2734375 67 98 C66.67 98.66 66.34 99.32 66 100 C65.195625 99.62875 64.39125 99.2575 63.5625 98.875 C59.49750559 97.87658032 57.34171719 98.37643935 53.390625 99.41796875 C49.6268742 100.33430677 45.85232211 100.63311218 42 101 C42 100.34 42 99.68 42 99 C39.03 98.67 36.06 98.34 33 98 C33 97.34 33 96.68 33 96 C32.34 96 31.68 96 31 96 C31 95.34 31 94.68 31 94 C30.071875 93.814375 30.071875 93.814375 29.125 93.625 C27 93 27 93 25 91 C22.67724823 90.59952556 20.34260643 90.2602896 18 90 C18 89.34 18 88.68 18 88 C17.01 88 16.02 88 15 88 C15 87.34 15 86.68 15 86 C14.28457031 85.78085938 13.56914062 85.56171875 12.83203125 85.3359375 C9.28335411 83.66194084 7.3142767 81.5280747 4.6875 78.625 C3.36298828 77.19027344 3.36298828 77.19027344 2.01171875 75.7265625 C0 73 0 73 0 69 C-0.99 68.67 -1.98 68.34 -3 68 C-3.73046875 66.15234375 -3.73046875 66.15234375 -4.1875 63.9375 C-4.34605469 63.20402344 -4.50460938 62.47054687 -4.66796875 61.71484375 C-4.77753906 61.14894531 -4.88710937 60.58304688 -5 60 C-6.485 60.495 -6.485 60.495 -8 61 C-8.81583477 54.55164197 -9.1826074 48.24737821 -9.1875 41.75 C-9.19974609 40.87859375 -9.21199219 40.0071875 -9.22460938 39.109375 C-9.23498867 34.57016348 -9.02270531 31.15267529 -7 27 C-6.773125 25.80375 -6.54625 24.6075 -6.3125 23.375 C-5.17562379 18.39169262 -2.29435418 14.62735055 0.63671875 10.515625 C2.23072864 8.1508426 2.23072864 8.1508426 1.7421875 5.8125 C1.49726563 5.214375 1.25234375 4.61625 1 4 C0.66666667 2.66666667 0.33333333 1.33333333 0 0 Z " fill="#3A1177" transform="translate(260,91)"/>
<path d="M0 0 C6.7810722 5.81679129 12.07135906 16.67190339 13.36035156 25.45556641 C13.54791392 29.29113782 13.34854662 33.07930642 13.140625 36.91015625 C12.27421243 53.36059495 23.55483384 67.7511287 32.60546875 80.43945312 C38.82739 89.44911832 38.82739 89.44911832 38 96 C38.614903 98.0434634 38.614903 98.0434634 39.5625 99.6875 C41 103 41 103 40.6875 105.4375 C40.460625 105.953125 40.23375 106.46875 40 107 C40 106.01 40 105.02 40 104 C39.34 104 38.68 104 38 104 C38 103.01 38 102.02 38 101 C37.01 101 36.02 101 35 101 C35 99.68 35 98.36 35 97 C34.34 97 33.68 97 33 97 C31 94 31 94 31 90 C30.34 90 29.68 90 29 90 C29 89.01 29 88.02 29 87 C27.515 86.505 27.515 86.505 26 86 C26 85.01 26 84.02 26 83 C25.34 83 24.68 83 24 83 C24 82.01 24 81.02 24 80 C23.34 80 22.68 80 22 80 C20.5393715 77.35261084 20 76.10551666 20 73 C19.34 73 18.68 73 18 73 C15.71428571 64.57142857 15.71428571 64.57142857 16 60 C15.67 61.65 15.34 63.3 15 65 C14.01 65 13.02 65 12 65 C11.65066406 63.87980469 11.30132812 62.75960937 10.94140625 61.60546875 C10.48178595 60.13280778 10.0221497 58.66015179 9.5625 57.1875 C9.33240234 56.44951172 9.10230469 55.71152344 8.86523438 54.95117188 C7.9312816 51.95981589 6.99100896 48.97302688 6 46 C5.99819664 43.84318313 6.05682287 41.686121 6.1484375 39.53125 C6.20064453 37.58992188 6.20064453 37.58992188 6.25390625 35.609375 C6.30894939 33.56547236 6.37379938 31.5246815 6.47314453 29.48242188 C6.89905575 20.35766415 6.2137456 14.59730897 0.42041016 7.34960938 C-1 5 -1 5 -0.71337891 2.19726562 C-0.47796387 1.47216797 -0.24254883 0.74707031 0 0 Z " fill="#3E1479" transform="translate(111,34)"/>
<path d="M0 0 C4.6706112 4.21861657 4.6706112 4.21861657 5 8 C3.85546875 10.8828125 3.85546875 10.8828125 2.1875 14.125 C-0.25752397 19.13362879 -1.82042899 23.56288227 -2.578125 29.07421875 C-3 31 -3 31 -5 33 C-5.30982479 35.04867513 -5.30982479 35.04867513 -5.265625 37.39453125 C-5.26820313 38.26787109 -5.27078125 39.14121094 -5.2734375 40.04101562 C-5.26570312 40.95560547 -5.25796875 41.87019531 -5.25 42.8125 C-5.25773438 43.71548828 -5.26546875 44.61847656 -5.2734375 45.54882812 C-5.25971433 50.21813673 -4.99855683 53.70944745 -3 58 C-3 59.32 -3 60.64 -3 62 C-2.34 62 -1.68 62 -1 62 C-0.35004703 63.41478135 0.29478722 64.83191487 0.9375 66.25 C1.29714844 67.03890625 1.65679687 67.8278125 2.02734375 68.640625 C3 71 3 71 3.51953125 73.23828125 C3.67808594 73.81964844 3.83664062 74.40101563 4 75 C5.31403276 75.70394612 6.6520257 76.36345658 8 77 C9.12675347 78.15989328 10.25182874 79.32153037 11.36328125 80.49609375 C14.30504814 83.19914925 17.67787386 85.3238277 20.98828125 87.546875 C21.65214844 88.02640625 22.31601562 88.5059375 23 89 C23 89.33 23 89.66 23 90 C21.35 90 19.7 90 18 90 C18 89.34 18 88.68 18 88 C17.01 88 16.02 88 15 88 C15 87.34 15 86.68 15 86 C14.28457031 85.78085938 13.56914062 85.56171875 12.83203125 85.3359375 C9.28335411 83.66194084 7.3142767 81.5280747 4.6875 78.625 C3.36298828 77.19027344 3.36298828 77.19027344 2.01171875 75.7265625 C0 73 0 73 0 69 C-0.99 68.67 -1.98 68.34 -3 68 C-3.73046875 66.15234375 -3.73046875 66.15234375 -4.1875 63.9375 C-4.34605469 63.20402344 -4.50460938 62.47054687 -4.66796875 61.71484375 C-4.77753906 61.14894531 -4.88710937 60.58304688 -5 60 C-6.485 60.495 -6.485 60.495 -8 61 C-8.81583477 54.55164197 -9.1826074 48.24737821 -9.1875 41.75 C-9.19974609 40.87859375 -9.21199219 40.0071875 -9.22460938 39.109375 C-9.23498867 34.57016348 -9.02270531 31.15267529 -7 27 C-6.773125 25.80375 -6.54625 24.6075 -6.3125 23.375 C-5.17562379 18.39169262 -2.29435418 14.62735055 0.63671875 10.515625 C2.23072864 8.1508426 2.23072864 8.1508426 1.7421875 5.8125 C1.49726563 5.214375 1.25234375 4.61625 1 4 C0.66666667 2.66666667 0.33333333 1.33333333 0 0 Z " fill="#420C94" transform="translate(260,91)"/>
<path d="M0 0 C0.66 0.33 1.32 0.66 2 1 C1.34464557 4.77950978 -0.41129456 7.46494873 -2.4375 10.6875 C-5.53827629 15.86814259 -7.04406985 20.07323306 -8 26 C-8.33 26.66 -8.66 27.32 -9 28 C-9.084915 29.8863912 -9.107193 31.77578515 -9.09765625 33.6640625 C-9.09443359 34.78554687 -9.09121094 35.90703125 -9.08789062 37.0625 C-9.07951172 38.238125 -9.07113281 39.41375 -9.0625 40.625 C-9.05798828 41.80835938 -9.05347656 42.99171875 -9.04882812 44.2109375 C-9.03701467 47.14067507 -9.02054258 50.07031272 -9 53 C-14.99878658 41.30488667 -13.51400408 30.29901427 -10 18 C-9.66174029 16.52195213 -9.32774657 15.04291458 -9 13.5625 C-7.32409223 7.59207858 -4.47131282 4.22962023 0 0 Z " fill="#4F08B6" transform="translate(261,95)"/>
<path d="M0 0 C4.36097981 3.640818 6.37014261 8.21896596 8.75 13.25 C9.16121094 14.07113281 9.57242188 14.89226563 9.99609375 15.73828125 C12.56702955 21.12785099 13.46735108 25.03440088 13 31 C12.34 31 11.68 31 11 31 C10.97273073 33.35424675 10.95303281 35.70816962 10.9375 38.0625 C10.92589844 39.37347656 10.91429688 40.68445313 10.90234375 42.03515625 C10.99547665 45.8163519 11.38551274 49.27920707 12 53 C8.64724475 48.62684098 7.89552352 46.721707 8.21875 41.171875 C9.2389644 22.97128443 9.2389644 22.97128443 0.87109375 7.56640625 C-1 5 -1 5 -0.77734375 2.15234375 C-0.52082031 1.44207031 -0.26429687 0.73179688 0 0 Z " fill="#42157F" transform="translate(111,34)"/>
<path d="M0 0 C2 2 2 2 2.1953125 4.86987305 C2.17210938 6.07168213 2.14890625 7.27349121 2.125 8.51171875 C2.10953125 9.82720703 2.0940625 11.14269531 2.078125 12.49804688 C2.0409596 14.58688888 2.00023423 16.67563936 1.95898438 18.7644043 C1.92249011 20.78431384 1.89849185 22.80412244 1.875 24.82421875 C1.85179688 26.03166748 1.82859375 27.23911621 1.8046875 28.4831543 C2.01392174 32.25067828 2.89876037 35.40295775 4 39 C4.125 42.4375 4.125 42.4375 4 45 C3.34 43.68 2.68 42.36 2 41 C1.01 41.495 1.01 41.495 0 42 C-1.90362721 36.37976729 -2.31385261 31.41320805 -2.25 25.5 C-2.24613281 24.63084961 -2.24226563 23.76169922 -2.23828125 22.86621094 C-2.13611501 15.12711861 -1.29432773 7.62728841 0 0 Z " fill="#500BB2" transform="translate(116,48)"/>
<path d="M0 0 C6.75 -0.125 6.75 -0.125 9 1 C10.88472859 1.15344209 12.77427874 1.24959571 14.6640625 1.31640625 C16.34628906 1.37924805 16.34628906 1.37924805 18.0625 1.44335938 C19.238125 1.48267578 20.41375 1.52199219 21.625 1.5625 C22.80835938 1.60568359 23.99171875 1.64886719 25.2109375 1.69335938 C28.14050328 1.79967426 31.07015588 1.90170642 34 2 C34.495 2.99 34.495 2.99 35 4 C30.82303897 5.93032374 26.71528166 6.59639774 22.1875 7.125 C21.14819336 7.25455078 21.14819336 7.25455078 20.08789062 7.38671875 C18.39266294 7.59716081 16.69642245 7.79941672 15 8 C15 7.34 15 6.68 15 6 C12.03 5.67 9.06 5.34 6 5 C6 4.34 6 3.68 6 3 C5.34 3 4.68 3 4 3 C4 2.34 4 1.68 4 1 C2.68 0.67 1.36 0.34 0 0 Z " fill="#420A97" transform="translate(287,184)"/>
<path d="M0 0 C4.6706112 4.21861657 4.6706112 4.21861657 5 8 C3.85546875 10.8828125 3.85546875 10.8828125 2.1875 14.125 C-0.25752397 19.13362879 -1.82042899 23.56288227 -2.578125 29.07421875 C-3 31 -3 31 -5 33 C-5.3063859 35.73434962 -5.5113336 38.38279821 -5.625 41.125 C-5.66367188 41.87910156 -5.70234375 42.63320312 -5.7421875 43.41015625 C-5.83651031 45.27303184 -5.91934662 47.13648255 -6 49 C-6.33 49 -6.66 49 -7 49 C-8.30079104 33.87634517 -8.5771483 23.17456035 0.671875 10.41015625 C2.23105096 8.13547152 2.23105096 8.13547152 1.73828125 5.82421875 C1.49464844 5.22222656 1.25101562 4.62023437 1 4 C0.66666667 2.66666667 0.33333333 1.33333333 0 0 Z " fill="#440F91" transform="translate(260,91)"/>
<path d="M0 0 C2 2 2 2 2.1953125 4.70214844 C2.16050781 6.38872559 2.16050781 6.38872559 2.125 8.109375 C2.10953125 9.33914062 2.0940625 10.56890625 2.078125 11.8359375 C2.02635342 14.42969374 1.97427386 17.02344386 1.921875 19.6171875 C1.89867188 21.46957031 1.89867188 21.46957031 1.875 23.359375 C1.85179688 24.48827148 1.82859375 25.61716797 1.8046875 26.78027344 C2.01015737 30.16744416 2.78848889 32.84363199 4 36 C4.66 36 5.32 36 6 36 C7.13764351 40.26616316 8 43.56486311 8 48 C7.01 48 6.02 48 5 48 C4.65066406 46.87980469 4.30132812 45.75960937 3.94140625 44.60546875 C3.48178595 43.13280778 3.0221497 41.66015179 2.5625 40.1875 C2.33240234 39.44951172 2.10230469 38.71152344 1.86523438 37.95117188 C0.9312816 34.95981589 -0.00899104 31.97302688 -1 29 C-1.41782636 19.30397062 -0.83342082 9.65875195 0 0 Z " fill="#471192" transform="translate(118,51)"/>
<path d="M0 0 C4.14961321 3.53485569 7.07689549 7.91869368 9 13 C9.11658128 15.93881968 8.68467014 18.10331864 8 21 C7.67 19.68 7.34 18.36 7 17 C6.01 17 5.02 17 4 17 C3.67 15.02 3.34 13.04 3 11 C2.34 11 1.68 11 1 11 C0.67 7.37 0.34 3.74 0 0 Z " fill="#3B1376" transform="translate(159,139)"/>
<path d="M0 0 C0.33 0 0.66 0 1 0 C1.02730408 1.56240032 1.04653226 3.1249427 1.0625 4.6875 C1.07410156 5.55761719 1.08570312 6.42773438 1.09765625 7.32421875 C0.99993922 10.00166548 0.52464011 12.37679947 0 15 C-0.25722677 18.63792153 -0.44182765 22.27543419 -0.62109375 25.91796875 C-1 29 -1 29 -3 31 C-2.979375 29.845 -2.95875 28.69 -2.9375 27.5 C-2.92196591 24.56405707 -3.14366336 21.83118262 -3.625 18.9375 C-4.03090136 14.67553576 -3.27277433 12.04293022 -2 8 C-2 6.906875 -2 5.81375 -2 4.6875 C-2 2 -2 2 0 0 Z " fill="#5608C5" transform="translate(115,48)"/>
<path d="M0 0 C4.18772976 3.53546485 6.07436777 7.74775389 8.3125 12.625 C8.68439453 13.40101562 9.05628906 14.17703125 9.43945312 14.9765625 C11.44051213 19.26933712 11.44051213 19.26933712 12 21 C11.67 21.66 11.34 22.32 11 23 C-1 5 -1 5 -0.625 2.3125 C-0.41875 1.549375 -0.2125 0.78625 0 0 Z " fill="#1D1C1F" transform="translate(111,34)"/>
<path d="M0 0 C0.66 0 1.32 0 2 0 C3.4606285 2.64738916 4 3.89448334 4 7 C4.66 7 5.32 7 6 7 C6.33 7.99 6.66 8.98 7 10 C7.66 10.33 8.32 10.66 9 11 C10.54266151 14.2668126 11.39102647 17.44765442 12 21 C11.01 20.67 10.02 20.34 9 20 C9 19.01 9 18.02 9 17 C8.34 17 7.68 17 7 17 C7 16.01 7 15.02 7 14 C6.34 14 5.68 14 5 14 C3.5393715 11.35261084 3 10.10551666 3 7 C2.34 7 1.68 7 1 7 C0.67 4.69 0.34 2.38 0 0 Z " fill="#440F91" transform="translate(128,100)"/>
<path d="M0 0 C4.56216465 -0.14532035 9.12373362 -0.23408477 13.6875 -0.3125 C15.62786133 -0.3753418 15.62786133 -0.3753418 17.60742188 -0.43945312 C19.47817383 -0.46362305 19.47817383 -0.46362305 21.38671875 -0.48828125 C23.10701294 -0.52755737 23.10701294 -0.52755737 24.86206055 -0.56762695 C28.91556923 0.1656188 30.3894432 1.91052041 33 5 C32.67 5.66 32.34 6.32 32 7 C30.35 6.34 28.7 5.68 27 5 C27 4.34 27 3.68 27 3 C26.25314941 2.98018066 25.50629883 2.96036133 24.73681641 2.93994141 C21.36584395 2.84491789 17.99551071 2.73514741 14.625 2.625 C13.449375 2.5940625 12.27375 2.563125 11.0625 2.53125 C9.94101562 2.49257812 8.81953125 2.45390625 7.6640625 2.4140625 C6.10872803 2.36693115 6.10872803 2.36693115 4.52197266 2.31884766 C2 2 2 2 0 0 Z " fill="#3E1083" transform="translate(294,184)"/>
<path d="M0 0 C0.33 0 0.66 0 1 0 C0.98952637 0.6297876 0.97905273 1.2595752 0.96826172 1.90844727 C0.9263977 4.79309006 0.90057799 7.67766866 0.875 10.5625 C0.85824219 11.55314453 0.84148437 12.54378906 0.82421875 13.56445312 C0.78699098 19.16723202 1.23087112 23.69261337 3 29 C3.125 32.4375 3.125 32.4375 3 35 C-0.44519977 30.65605247 -1.12696246 27.59180445 -1.1328125 22.08984375 C-1.13410156 20.93548828 -1.13539062 19.78113281 -1.13671875 18.59179688 C-1.13285156 17.38587891 -1.12898438 16.17996094 -1.125 14.9375 C-1.12886719 13.72771484 -1.13273437 12.51792969 -1.13671875 11.27148438 C-1.13542969 10.11841797 -1.13414063 8.96535156 -1.1328125 7.77734375 C-1.13168457 6.71765381 -1.13055664 5.65796387 -1.12939453 4.56616211 C-1 2 -1 2 0 0 Z " fill="#4C0DA4" transform="translate(117,58)"/>
<path d="M0 0 C0.33 0 0.66 0 1 0 C1.33776684 1.7491497 1.67003671 3.49936145 2 5.25 C2.185625 6.22453125 2.37125 7.1990625 2.5625 8.203125 C3 11 3 11 3 15 C3.66 15 4.32 15 5 15 C5.33 17.64 5.66 20.28 6 23 C5.67 21.68 5.34 20.36 5 19 C4.34 19 3.68 19 3 19 C1 16 1 16 1 12 C0.34 12 -0.32 12 -1 12 C-0.67 8.04 -0.34 4.08 0 0 Z " fill="#411186" transform="translate(141,112)"/>
<path d="M0 0 C0.33 0 0.66 0 1 0 C1.04898438 1.31355469 1.09796875 2.62710938 1.1484375 3.98046875 C1.22349468 5.71616595 1.29904123 7.45184203 1.375 9.1875 C1.4059375 10.05181641 1.436875 10.91613281 1.46875 11.80664062 C1.67703285 16.3367926 2.11999018 19.81965295 4 24 C4 25.32 4 26.64 4 28 C3.01 28.33 2.02 28.66 1 29 C0.15156826 22.43300475 -0.12561146 16.05449407 -0.0625 9.4375 C-0.05798828 8.52419922 -0.05347656 7.61089844 -0.04882812 6.66992188 C-0.0371874 4.44654262 -0.02083851 2.22330879 0 0 Z " fill="#470AA3" transform="translate(251,123)"/>
<path d="M0 0 C-3.59768642 3.45567249 -7.49458687 3.72960245 -12.25 4.1875 C-12.99507813 4.26935547 -13.74015625 4.35121094 -14.5078125 4.43554688 C-16.33735356 4.63491994 -18.16855151 4.81898474 -20 5 C-20 4.34 -20 3.68 -20 3 C-20.66 2.67 -21.32 2.34 -22 2 C-20.64455078 1.90912109 -20.64455078 1.90912109 -19.26171875 1.81640625 C-17.49248047 1.69072266 -17.49248047 1.69072266 -15.6875 1.5625 C-13.92986328 1.44068359 -13.92986328 1.44068359 -12.13671875 1.31640625 C-7.89191177 0.88822522 -4.34392878 -0.09653175 0 0 Z " fill="#4607A8" transform="translate(322,187)"/>
<path d="M0 0 C2.81944099 2.54659186 4.52089521 4.18125304 5 8 C4.36328125 10.0703125 4.36328125 10.0703125 3.3125 12.125 C2.97863281 12.80820313 2.64476562 13.49140625 2.30078125 14.1953125 C0.77318762 16.31467663 -0.60786878 17.02300325 -3 18 C-2.08178307 14.89218884 -1.34224013 12.43096905 0.6875 9.875 C2.23995537 8.10330677 2.23995537 8.10330677 1.75 6 C1.5025 5.34 1.255 4.68 1 4 C0.66666667 2.66666667 0.33333333 1.33333333 0 0 Z " fill="#3E1578" transform="translate(260,91)"/>
<path d="M0 0 C0.33 0.99 0.66 1.98 1 3 C-0.43359375 5.69921875 -0.43359375 5.69921875 -2.4375 8.6875 C-3.42556641 10.17830078 -3.42556641 10.17830078 -4.43359375 11.69921875 C-5.20896484 12.83810547 -5.20896484 12.83810547 -6 14 C-6.71484375 12.328125 -6.71484375 12.328125 -7 10 C-5.56640625 7.421875 -5.56640625 7.421875 -3.5625 4.75 C-2.90378906 3.85796875 -2.24507813 2.9659375 -1.56640625 2.046875 C-1.04949219 1.37140625 -0.53257812 0.6959375 0 0 Z " fill="#4D0BAA" transform="translate(262,96)"/>
<path d="M0 0 C0.33 0.99 0.66 1.98 1 3 C1.99 3 2.98 3 4 3 C4.33 5.64 4.66 8.28 5 11 C4.67 9.68 4.34 8.36 4 7 C3.34 7 2.68 7 2 7 C0 4 0 4 0 0 Z " fill="#460C9A" transform="translate(142,124)"/>
</svg>
